<svg width="7" height="9" viewBox="0 0 7 9" fill="none" xmlns="http://www.w3.org/2000/svg">
<path d="M6.01119 4.76361C5.82571 4.91658 5.61158 5.0396 5.37847 5.12711C4.98226 5.2621 4.55287 5.30137 4.13403 5.24092C3.91659 5.21793 3.70295 5.17232 3.49749 5.10503C3.96715 6.58759 4.87311 7.93208 6.12206 9C4.83495 8.92732 3.5989 8.52561 2.56273 7.84323C1.14052 6.8886 -0.21287 5.12542 0.027987 3.21955C0.06813 2.9087 0.293701 1.4139 1.50372 0.613842C2.28747 0.0940601 3.22732 -0.0956208 4.32328 0.0447997C5.22554 0.160307 5.92135 0.483047 6.41454 1.00623C6.90772 1.52941 7.08932 2.19527 6.95933 2.99533C6.83444 3.75971 6.5184 4.34914 6.01119 4.76361Z" fill="#DA4533"/>
</svg>
