<svg width="96" height="44" viewBox="0 0 96 44" fill="none" xmlns="http://www.w3.org/2000/svg">
<path fill-rule="evenodd" clip-rule="evenodd" d="M62.6345 0.782444C55.9228 1.64664 50.3976 6.27482 48.5984 12.5394C48.4289 13.13 48.243 13.9494 48.1854 14.3602C47.9766 15.8501 47.9801 15.8428 47.8465 15.0772C47.5852 13.5799 46.849 11.8774 45.9337 10.6537C45.2677 9.76335 43.8473 8.45776 42.9129 7.87696C41.9689 7.29028 40.9049 6.84217 39.6188 6.48968L38.7113 6.24102L32.0546 6.21132L25.398 6.18163L25.4632 6.9094C25.6097 8.54722 26.0644 10.0396 26.8192 11.3604C28.5224 14.3408 31.4281 16.2782 35.0273 16.8332C35.4134 16.8927 41.227 16.927 51.0412 16.9273C67.8977 16.9282 67.4256 16.9421 69.6431 16.3789C75.5627 14.8755 80.1904 10.2832 81.6517 4.46239C81.8597 3.63359 82.1274 1.73964 82.1274 1.09609V0.680664L72.684 0.692523C67.4903 0.699059 62.9679 0.739491 62.6345 0.782444ZM76.3448 5.31463C76.3448 5.47095 75.5216 6.83694 75.0419 7.47666C73.5797 9.42663 71.5732 10.8673 69.2239 11.6538C67.3473 12.2822 67.372 12.2804 60.2328 12.3234C56.3662 12.3468 53.7741 12.3282 53.7741 12.2771C53.7741 12.1437 54.4383 10.9682 54.8883 10.3052C55.4757 9.4398 56.8553 8.09817 57.8585 7.41653C59.339 6.41077 61.2271 5.66349 62.821 5.45246C63.257 5.39475 63.7187 5.33266 63.8469 5.31454C64.2698 5.25469 76.3448 5.25478 76.3448 5.31463ZM15.2282 13.1981C15.0342 13.2458 14.7557 13.3467 14.6093 13.4226C14.2187 13.6247 13.6249 14.3413 13.4989 14.7624C13.4273 15.0014 13.3892 15.9496 13.3892 17.4868C13.3892 19.6893 13.3785 19.8412 13.226 19.794C13.1362 19.7662 12.7587 19.6338 12.3872 19.4999C9.26052 18.3732 5.616 19.2533 3.25922 21.7044C2.31731 22.6839 1.65577 23.8226 1.24418 25.1727C1.04645 25.8216 1.03787 26.0182 1.0042 30.701C0.97883 34.2172 1.00028 35.7354 1.08189 36.205C1.6429 39.4337 3.97748 41.953 7.28997 42.9045C7.91542 43.0842 8.251 43.1163 9.51859 43.118C10.791 43.1198 11.1268 43.0883 11.7974 42.9049C14.4987 42.1658 16.6399 40.2864 17.5899 37.8203C18.166 36.3247 18.1514 36.6681 18.1241 25.1917C18.1008 15.3978 18.0888 14.7146 17.9344 14.4319C17.4202 13.4899 16.2368 12.9504 15.2282 13.1981ZM79.8423 13.1598C79.2541 13.303 78.9756 13.444 78.6003 13.789C77.7766 14.5462 77.8415 13.5654 77.8391 25.3004C77.8375 33.8742 77.86 35.8005 77.9692 36.3716C78.4635 38.958 80.2795 41.2517 82.7222 42.3748C84.031 42.9766 84.7116 43.1152 86.3711 43.1177C88.1251 43.1204 88.9061 42.9541 90.2883 42.2834C92.4355 41.2415 93.8856 39.5616 94.6843 37.1907L94.9517 36.397V31.1679C94.9517 25.9788 94.95 25.9332 94.7358 25.1919C94.6169 24.781 94.3022 24.0247 94.0363 23.5111C93.6229 22.713 93.4104 22.4346 92.5734 21.5946C91.7714 20.7899 91.4336 20.5254 90.708 20.1337C89.2225 19.3319 88.0551 19.0384 86.3711 19.0435C85.1832 19.0472 84.1028 19.2476 83.2155 19.629C82.9676 19.7355 82.7263 19.8227 82.6793 19.8227C82.6296 19.8227 82.5937 18.8368 82.5937 17.4758C82.5937 15.9328 82.5558 15.002 82.4828 14.7584C82.3394 14.279 81.6671 13.5332 81.2152 13.3523C80.8105 13.1902 80.1172 13.0929 79.8423 13.1598ZM92.3968 13.2365C91.8133 13.4238 91.292 13.9673 91.1166 14.5715C90.8809 15.3832 91.1777 16.1669 91.9029 16.6478C93.5176 17.7186 95.5887 16.0956 94.8539 14.3352C94.4689 13.4126 93.3738 12.9229 92.3968 13.2365ZM93.6957 13.7766C94.4444 14.155 94.7216 14.9761 94.348 15.7091C93.8647 16.6576 92.7806 16.8356 91.9891 16.0966C91.6549 15.7845 91.607 15.6856 91.5693 15.231C91.5074 14.4828 91.8591 13.9128 92.5267 13.6792C92.9642 13.5261 93.2466 13.5497 93.6957 13.7766ZM92.2625 14.0023C92.2283 14.0365 92.2003 14.5407 92.2003 15.1228C92.2003 16.1188 92.2113 16.1811 92.3868 16.1811C92.5485 16.1811 92.5734 16.1188 92.5734 15.7142C92.5734 15.0876 92.7937 15.0881 93.2037 15.7159C93.3999 16.0165 93.5732 16.1811 93.6933 16.1811C93.9356 16.1811 93.9279 16.1095 93.6394 15.6844L93.3996 15.3313L93.6394 15.1425C93.8836 14.9501 93.9645 14.4995 93.8011 14.2418C93.6547 14.0107 92.4425 13.822 92.2625 14.0023ZM93.3634 14.4401C93.6615 14.6583 93.479 14.8738 92.996 14.8738C92.5886 14.8738 92.5734 14.8637 92.5734 14.5937C92.5734 14.3389 92.6012 14.3136 92.882 14.3136C93.0517 14.3136 93.2684 14.3705 93.3634 14.4401ZM27.7407 19.0745C24.2801 19.5053 21.4468 21.8754 20.4639 25.1619C20.2802 25.7765 20.2558 26.1048 20.223 28.4133L20.1865 30.9812L20.4486 31.4941C20.7403 32.065 21.306 32.5516 21.8556 32.7043C22.0798 32.7667 24.5349 32.801 28.7783 32.801C33.0218 32.801 35.4769 32.7667 35.7011 32.7043C36.2498 32.5518 36.8166 32.0649 37.1025 31.5007L37.359 30.9943V28.7195C37.359 26.1466 37.2674 25.474 36.7539 24.275C36.291 23.1939 35.8992 22.5893 35.1246 21.7605C34.3645 20.9471 33.3832 20.234 32.4266 19.7997C31.1123 19.2031 29.149 18.8993 27.7407 19.0745ZM46.6391 19.1235C44.7178 19.4322 43.2594 20.1751 41.8752 21.5502C40.8947 22.5241 40.4653 23.1654 39.9581 24.4131C39.4106 25.7602 39.4108 25.7565 39.4118 33.8953L39.4127 41.3459L39.6331 41.8128C40.0441 42.6831 40.81 43.1626 41.7892 43.1626C42.7169 43.1626 43.4872 42.7084 43.9196 41.9062C44.1198 41.5345 44.121 41.4952 44.1675 34.0159L44.2141 26.4991L44.5093 25.8754C44.9226 25.002 45.453 24.461 46.3049 24.044C46.984 23.7117 47.0511 23.6978 47.9915 23.6978C48.8975 23.6978 49.0174 23.72 49.5938 23.9934C50.4607 24.4045 51.0009 24.934 51.4204 25.7837L51.7688 26.4891L51.8154 34.0109C51.8667 42.2879 51.8225 41.6898 52.4378 42.4219C53.0441 43.1433 54.2957 43.3782 55.2249 42.9451C55.7935 42.6801 56.3242 42.0873 56.4721 41.5521C56.5518 41.2636 56.5728 39.1228 56.5509 33.5023C56.5212 25.9017 56.5195 25.8405 56.3142 25.1727C55.41 22.231 53.1423 20.0583 50.1949 19.3098C49.0461 19.018 47.726 18.9489 46.6391 19.1235ZM66.1669 19.0745C62.4583 19.5361 59.5189 22.192 58.7629 25.7644C58.6656 26.2247 58.6268 27.0535 58.6256 28.7001L58.624 30.9943L58.8804 31.5007C59.1663 32.0649 59.7331 32.5518 60.2818 32.7043C60.506 32.7667 62.9611 32.801 67.2046 32.801C71.4481 32.801 73.9031 32.7667 74.1274 32.7043C74.6769 32.5516 75.2427 32.065 75.5343 31.4941L75.7964 30.9812L75.7599 28.4133C75.7268 26.0886 75.7037 25.7792 75.5146 25.1452C74.8486 22.9104 73.161 20.924 71.0632 19.9057C69.661 19.225 67.6716 18.8872 66.1669 19.0745ZM11.2629 24.0549C12.1029 24.4594 12.6335 25.0007 13.0474 25.8754L13.3426 26.4991L13.3729 30.7944C13.3943 33.8438 13.3713 35.2387 13.2932 35.6033C12.976 37.0857 11.7518 38.2293 10.1907 38.5014C8.21956 38.8451 6.25041 37.5342 5.83723 35.6033C5.75917 35.2387 5.73613 33.8438 5.75758 30.7944L5.78789 26.4991L6.08308 25.8754C6.45783 25.0834 6.99142 24.5036 7.68738 24.1322C8.43025 23.7359 8.81918 23.6527 9.76277 23.6889C10.4583 23.7155 10.6606 23.7649 11.2629 24.0549ZM30.3988 24.0191C30.744 24.184 31.1782 24.4523 31.3638 24.6154C32.1546 25.3098 32.6361 26.4852 32.5836 27.5929L32.5557 28.1799H28.7783H25.001L24.9731 27.5929C24.9011 26.0745 25.6891 24.7353 27.0455 24.0709C27.7838 23.7092 28.061 23.6542 28.9717 23.6888C29.6415 23.7143 29.873 23.7679 30.3988 24.0191ZM68.9022 24.0549C70.1872 24.6737 70.9354 25.8158 71.0119 27.2755C71.0434 27.8761 71.0228 28.0795 70.9242 28.1421C70.8534 28.187 69.1795 28.2237 67.2046 28.2237C65.2296 28.2237 63.5558 28.187 63.485 28.1421C63.3864 28.0795 63.3658 27.8761 63.3973 27.2755C63.4302 26.6469 63.4966 26.3662 63.7306 25.8655C64.2085 24.8433 65.1951 24.0129 66.2482 23.7466C66.4408 23.6979 66.96 23.672 67.4021 23.6889C68.0976 23.7155 68.2999 23.7649 68.9022 24.0549ZM88.1275 24.0545C88.9371 24.4551 89.5323 25.0545 89.9343 25.8743L90.195 26.4058V31.0746V35.7434L89.9076 36.3506C89.3788 37.4675 88.3172 38.2716 87.0728 38.4976C85.2063 38.8364 83.3213 37.6878 82.7719 35.877C82.5945 35.292 82.5865 35.0406 82.6127 30.88L82.6404 26.4991L82.9382 25.8697C83.4251 24.8406 84.4117 24.0107 85.4613 23.7473C85.6539 23.699 86.1749 23.6703 86.6192 23.6837C87.337 23.7052 87.5049 23.7465 88.1275 24.0545ZM22.2955 35.0241C21.3289 35.3587 20.7638 36.068 20.685 37.0456C20.636 37.6529 20.891 38.3431 21.5214 39.31C24.4736 43.8376 31.1015 44.5019 34.9436 40.6552C35.6606 39.9374 36.4227 38.8133 36.7094 38.0504C37.0913 37.0348 36.7787 35.9437 35.9405 35.3654C34.6258 34.4583 33.1109 34.8601 32.2803 36.3361C31.5676 37.6025 30.6635 38.2819 29.3969 38.5026C27.7268 38.7938 26.1147 37.9283 25.231 36.2659C24.8681 35.5833 24.4154 35.2052 23.7097 34.9954C23.1157 34.8188 22.8743 34.8237 22.2955 35.0241ZM60.909 34.9385C60.4338 35.0629 60.0758 35.2916 59.6755 35.7264C58.826 36.6491 58.9032 37.7084 59.9356 39.2915C61.1708 41.186 63.1638 42.5311 65.4316 43.0011C66.5816 43.2394 68.37 43.1923 69.4896 42.8943C70.4453 42.6398 71.7388 42.0014 72.555 41.3812C73.8644 40.3862 75.1941 38.4584 75.2948 37.4085C75.3583 36.7469 75.1795 36.2107 74.7343 35.727C74.1712 35.1154 73.7297 34.9149 72.9379 34.9112C72.083 34.9073 71.402 35.2578 70.9819 35.9181C70.1388 37.2433 69.9205 37.5236 69.5114 37.8058C68.7662 38.3199 68.1056 38.5262 67.2046 38.5262C66.3035 38.5262 65.6429 38.3199 64.8978 37.8058C64.487 37.5224 64.221 37.1797 63.4272 35.9105C62.9592 35.1624 61.7852 34.7091 60.909 34.9385Z" fill="white"/>
</svg>
