<svg width="132" height="60" viewBox="0 0 132 60" fill="none" xmlns="http://www.w3.org/2000/svg">
<path fill-rule="evenodd" clip-rule="evenodd" d="M14.9387 0.281823C14.4745 0.474523 14.0601 1.00517 13.2807 2.4047C10.8887 6.69942 6.77282 10.8141 2.4617 13.2212C1.72725 13.6312 0.967801 14.1558 0.773874 14.3867C-0.318322 15.6879 0.589131 17.6705 2.27591 17.669C3.1945 17.6682 3.76078 17.2348 4.48349 15.9793C7.47776 10.7771 11.1369 7.11354 16.2254 4.22273C17.2524 3.63919 17.7019 3.11323 17.8252 2.35044C17.9336 1.67984 17.5111 0.791761 16.9081 0.422683C16.4284 0.129023 15.4715 0.060558 14.9387 0.281823ZM22.3043 0.875944C21.6448 1.27978 21.0694 2.032 20.2303 3.5872C18.8796 6.09109 16.7887 8.63595 12.7567 12.6833C8.69734 16.7581 6.16559 18.8501 3.67796 20.1853C1.97568 21.0989 1.10045 21.9048 0.869783 22.7705C0.401226 24.5297 1.85162 26.0771 3.68881 25.7778C4.69819 25.6134 5.19129 25.0419 6.92865 22.0236C7.99179 20.1767 10.0806 17.6436 13.0566 14.592C17.2771 10.2645 20.072 7.90338 22.9186 6.26082C23.7467 5.78292 24.6058 5.26271 24.8276 5.10477C25.899 4.34198 26.2142 2.6503 25.4728 1.64161C24.7293 0.630044 23.2788 0.279556 22.3043 0.875944ZM9.12103 1.33087C8.92153 1.48835 8.38732 2.25099 7.93382 3.02557C6.85924 4.86083 5.13136 6.63201 3.51912 7.55048C1.7283 8.57081 1.31259 8.96845 1.31259 9.66156C1.31259 10.1227 1.40775 10.3173 1.79169 10.6417C2.58471 11.3115 3.433 10.9724 4.05995 9.73487C5.28374 7.31939 7.25538 5.31682 9.72042 3.98514C11.16 3.20754 11.4924 2.32263 10.6592 1.48624C10.1494 0.974486 9.63776 0.922797 9.12103 1.33087ZM29.2339 3.2943C28.4242 3.66352 27.7477 4.48526 26.772 6.2847C23.0692 13.1134 13.1349 23.0734 6.35711 26.7522C3.90833 28.0813 2.93463 29.3499 3.21694 30.8432C3.59049 32.8185 5.74943 33.9113 7.49192 33.0069C8.15606 32.6621 8.89638 31.708 9.85232 29.9646C12.3576 25.3966 17.4551 19.5568 23.3703 14.4785C26.1186 12.1189 27.668 11.01 30.1956 9.5934C32.0455 8.55675 32.7327 7.98288 33.1021 7.16689C34.2111 4.71635 31.6777 2.18011 29.2339 3.2943ZM32.0829 10.8562C31.4888 11.2198 31.0542 11.8054 30.131 13.487C28.6732 16.1422 26.0993 19.2307 21.9204 23.3391C18.1785 27.0176 15.8748 28.8631 13.1685 30.3503C12.526 30.7032 11.7714 31.2089 11.4914 31.474C10.1924 32.7037 10.5101 34.8232 12.0989 35.5287C13.5836 36.188 14.9069 35.4477 16.0006 33.3462C17.4113 30.6358 19.8448 27.6132 23.816 23.6395C27.74 19.7131 30.5289 17.429 33.1468 15.9979C35.1585 14.8982 35.7919 14.1469 35.7919 12.8604C35.7919 12.1626 35.3268 11.4021 34.5991 10.9098C33.9443 10.4668 32.7601 10.4416 32.0829 10.8562ZM33.444 18.8622C32.8047 19.1556 32.7011 19.2917 31.2485 21.7503C28.9804 25.5893 24.9028 29.5712 21.1118 31.6493C19.2707 32.6586 18.7803 33.199 18.7796 34.2191C18.7785 35.7366 20.3226 36.7161 21.6385 36.0329C22.1667 35.7588 22.5684 35.2263 23.5201 33.539C25.5759 29.8943 30.0972 25.3412 33.5334 23.4551C35.7062 22.2625 36.2419 21.7072 36.243 20.647C36.2445 19.147 34.8128 18.2339 33.444 18.8622ZM33.2722 25.6084C33.0917 25.7353 32.5593 26.5004 32.0889 27.3087C30.9902 29.197 29.1543 31.0513 27.4276 32.0163C26.7695 32.3842 26.0821 32.8178 25.9001 32.98C25.4468 33.3836 25.3319 34.0205 25.6137 34.5677C25.875 35.0747 26.1186 35.2015 26.8322 35.2015C27.4217 35.2015 27.796 34.8143 28.6104 33.3616C29.7512 31.3267 31.4951 29.6017 33.5661 28.4593C34.8878 27.7302 35.2198 27.3654 35.2198 26.6416C35.2198 25.627 34.0947 25.0301 33.2722 25.6084ZM127.387 36.2657C126.23 36.4954 125.243 37.0292 124.556 37.796C123.693 38.7599 123.36 39.7532 123.455 41.0836C123.579 42.8269 124.353 43.9678 125.945 44.7542C126.901 45.226 127.041 45.2522 128.612 45.2522C129.86 45.2522 130.448 45.1836 130.986 44.9751L131.702 44.6982V43.3504C131.702 42.6092 131.678 42.0027 131.65 42.0027C131.621 42.0027 131.198 42.1413 130.709 42.3106C129.3 42.7985 128.27 42.8535 127.441 42.4851C125.778 41.7468 125.713 39.7896 127.328 39.059C128.158 38.683 129.704 38.8009 130.85 39.3276L131.702 39.7189V38.3121V36.9052L131.062 36.6636C129.649 36.1304 128.626 36.0196 127.387 36.2657ZM37.9263 37.053C37.8351 37.4893 37.4195 39.4107 37.0027 41.3226C36.586 43.2345 36.2446 44.8838 36.2442 44.9877C36.2437 45.1248 36.6122 45.1766 37.5862 45.1766H38.9288L39.0795 44.4587C39.1624 44.0638 39.4502 42.5846 39.7188 41.1715C40.088 39.2296 40.236 38.6945 40.3248 38.98C40.3894 39.1878 40.6176 40.582 40.8317 42.0783C41.046 43.5745 41.2511 44.8838 41.2874 44.9877C41.3366 45.1288 42.0027 45.1766 43.9224 45.1766C45.8478 45.1766 46.5053 45.1293 46.5466 44.9877C46.577 44.8838 46.7837 43.5745 47.0063 42.0783C47.2286 40.582 47.4605 39.1903 47.5216 38.9856C47.6029 38.7129 47.7634 39.2996 48.1212 41.177C48.3898 42.5872 48.6786 44.0638 48.7627 44.4587L48.916 45.1766H50.3339C51.1137 45.1766 51.7514 45.1257 51.751 45.0632C51.7505 45.0008 51.511 43.8277 51.2189 42.4561C50.6007 39.5547 49.945 36.3931 49.945 36.3142C49.945 36.2841 48.9077 36.2595 47.6401 36.2595H45.3353L44.7627 39.32C44.4477 41.0032 44.1419 42.548 44.0832 42.7528C43.9695 43.1488 43.9349 42.9986 43.0842 38.4132L42.6846 36.2595H40.3882H38.0919L37.9263 37.053ZM53.2574 40.7155V45.1766H57.0215H60.7856V44.0431V42.9095H58.3013H55.817V42.3806V41.8516H58.226H60.6351V40.718V39.5845H58.226H55.817V39.1349V38.6852L58.2637 38.6437L60.7103 38.6021V37.4686V36.3351L56.9839 36.2947L53.2574 36.2542V40.7155ZM61.5385 37.5442V38.8288H62.9658H64.393L64.4338 41.9649L64.4745 45.101L65.7919 45.1447L67.1093 45.1884V42.0086V38.8288H68.5397H69.9701V37.5442V36.2595H65.7543H61.5385V37.5442ZM72.5309 36.5996C72.1411 37.5268 69.3678 44.9322 69.3678 45.0457C69.3678 45.1177 69.9642 45.1766 70.6931 45.1766H72.0185L72.2892 44.4209L72.5599 43.6652H74.49H76.4201L76.6702 44.4209L76.9203 45.1766H78.3385C79.1185 45.1766 79.7568 45.131 79.7568 45.075C79.7568 45.0193 79.5957 44.5603 79.3987 44.0549C79.2016 43.5496 78.446 41.5889 77.7192 39.6979L76.3978 36.2595H74.5358C72.7475 36.2595 72.6682 36.2729 72.5309 36.5996ZM85.1771 36.7885V37.3175L83.9349 37.319C82.9522 37.32 82.5354 37.3939 81.9395 37.6725C79.9609 38.5974 79.4772 41.4884 81.0165 43.1887C81.6275 43.8638 82.451 44.1682 83.8597 44.2397L85.1771 44.3068V44.7416V45.1766H86.5322H87.8873V44.7416V44.3068L89.2047 44.2397C91.6831 44.1138 92.9027 42.9523 92.9027 40.718C92.9027 39.6732 92.6287 38.9346 92.0144 38.3236C91.295 37.6081 90.765 37.4116 89.3176 37.324L87.9625 37.2419L87.9154 36.7507L87.8681 36.2595H86.5227H85.1771V36.7885ZM94.211 40.7066V45.1766H95.4908H96.7706V44.1186V43.0607H97.9677C100.229 43.0607 101.38 42.5459 102.045 41.2384C102.661 40.026 102.356 38.0799 101.415 37.2218C100.525 36.4097 100.196 36.3382 97.1093 36.2858L94.211 36.2364V40.7066ZM105.871 36.7862C105.75 37.0759 105.17 38.5893 104.582 40.149C103.994 41.7089 103.351 43.4118 103.153 43.9332C102.955 44.4546 102.793 44.9476 102.793 45.0289C102.793 45.1139 103.356 45.1766 104.118 45.1766H105.444L105.715 44.4209L105.985 43.6652H107.892H109.799L110.066 44.4209L110.334 45.1766H111.758C112.541 45.1766 113.182 45.153 113.182 45.1242C113.182 45.0747 112.598 43.525 111.208 39.8868C110.874 39.014 110.429 37.8407 110.218 37.2797L109.835 36.2595H107.962H106.09L105.871 36.7862ZM114.236 40.718V45.1884L115.554 45.1447L116.871 45.101L116.911 43.6652C116.984 41.0858 116.819 41.1245 118.576 43.2744L120.13 45.1766H121.775C122.68 45.1766 123.421 45.1356 123.421 45.0855C123.421 45.0353 122.614 43.9939 121.629 42.7714L119.838 40.5486L120.378 39.8777C120.674 39.5086 121.413 38.6135 122.018 37.8883C122.624 37.1631 123.119 36.5001 123.119 36.4147C123.119 36.319 122.552 36.2595 121.641 36.2595H120.162L118.594 38.2135C117.731 39.2881 117.003 40.1452 116.976 40.1182C116.949 40.0911 116.914 39.2289 116.899 38.2021L116.871 36.3351L115.554 36.2914L114.236 36.2477V40.718ZM75.0808 39.9125C75.3339 40.6331 75.541 41.2623 75.541 41.3105C75.541 41.3587 75.0667 41.3982 74.487 41.3982C73.9073 41.3982 73.4326 41.3472 73.4322 41.2848C73.4297 40.9661 74.4244 38.4034 74.5149 38.4951C74.573 38.5539 74.8276 39.1917 75.0808 39.9125ZM108.439 39.8112C108.673 40.4762 108.894 41.1054 108.931 41.2092C108.981 41.349 108.72 41.3982 107.928 41.3982C107.34 41.3982 106.858 41.3472 106.856 41.2848C106.851 40.9874 107.839 38.3942 107.92 38.4912C107.972 38.5522 108.205 39.1462 108.439 39.8112ZM99.3302 38.98C99.4958 39.1462 99.6313 39.4523 99.6313 39.6601C99.6313 40.3742 99.1584 40.6425 97.8998 40.6425H96.7706V39.6601V38.6777H97.8998C98.8283 38.6777 99.0826 38.7315 99.3302 38.98ZM85.1771 40.718V41.8516H84.4366C83.4766 41.8516 83.2565 41.7567 82.9822 41.2244C82.5409 40.3676 83.278 39.5912 84.5372 39.5868L85.1771 39.5845V40.718ZM89.8423 39.9602C90.2571 40.3372 90.2439 41.1435 89.8161 41.5434C89.5703 41.7733 89.2836 41.8516 88.6869 41.8516H87.8873V40.6993V39.547L88.7131 39.6158C89.2216 39.6581 89.6553 39.7905 89.8423 39.9602ZM36.7645 50.9569C36.7237 51.0633 36.7085 53.0879 36.7305 55.4559L36.7706 59.7614H38.0504H39.3302L39.3708 56.5497L39.4115 53.338H41.7482H44.0851L44.0413 52.0911L43.9977 50.8443L40.4181 50.8037C37.6176 50.772 36.8224 50.8053 36.7645 50.9569ZM44.9763 55.2924V59.8487L46.2938 59.805L47.6112 59.7614V58.7034V57.6454L49.2674 57.5699C51.2784 57.4781 52.0139 57.1488 52.7009 56.0327C53.495 54.7427 53.2503 52.7243 52.1785 51.7206C51.4002 50.9919 50.8023 50.866 47.7994 50.7991L44.9763 50.736V55.2924ZM53.4087 50.9522C53.4092 51.059 53.765 51.6906 54.1992 52.3556C55.884 54.9352 56.8709 56.5364 56.8709 56.69C56.8709 56.8659 55.9249 58.4909 55.4891 59.0639C54.9555 59.765 55.0869 59.8522 56.6052 59.8049L57.9957 59.7614L60.0665 56.4363C61.2056 54.6076 62.4388 52.639 62.8074 52.0617C63.1758 51.4843 63.4435 50.9572 63.4023 50.8904C63.3088 50.7383 60.9175 50.733 60.7048 50.8843C60.619 50.9454 60.1108 51.6926 59.5757 52.5446C59.0407 53.3965 58.5689 54.0925 58.5273 54.091C58.4859 54.0895 57.9776 53.3584 57.3979 52.4663L56.344 50.8443L54.876 50.801C53.7573 50.7681 53.4081 50.8041 53.4087 50.9522ZM64.0166 50.9572C63.9759 51.0634 63.9607 53.0879 63.9827 55.4559L64.0228 59.7614H65.3026H66.5824L66.623 56.5497L66.6637 53.338H68.3139H69.964L70.0047 56.5497L70.0454 59.7614H71.3252H72.605L72.5745 55.3028L72.5441 50.8443L68.3172 50.8041C64.9953 50.7726 64.0746 50.8053 64.0166 50.9572ZM74.6475 50.9835C74.5128 51.1464 74.4784 52.305 74.5141 55.4821L74.5623 59.7614H75.8421H77.1219L77.1625 56.5497L77.2032 53.338H78.8534H80.5036L80.5442 56.5497L80.5849 59.7614H81.8647H83.1445V55.3028V50.8443L78.9866 50.8041C75.5009 50.7705 74.7996 50.7995 74.6475 50.9835ZM49.9525 53.4175C50.5414 53.7231 50.6063 54.3833 50.0989 54.9059C49.7378 55.278 47.8761 55.4521 47.6668 55.1334C47.5358 54.9339 47.5185 53.5363 47.644 53.3002C47.7544 53.0926 49.497 53.181 49.9525 53.4175Z" fill="white"/>
</svg>
