<svg width="146" height="59" viewBox="0 0 146 59" fill="none" xmlns="http://www.w3.org/2000/svg">
<path fill-rule="evenodd" clip-rule="evenodd" d="M135.973 0.731401C135.822 0.790331 133.777 2.78471 131.429 5.16362C127.909 8.73023 127.16 9.57916 127.16 10.0045C127.16 10.3925 127.444 10.8006 128.307 11.6538C128.939 12.2774 129.648 12.8457 129.884 12.9171C130.262 13.0312 130.842 12.5105 134.727 8.56585C138.208 5.0313 139.14 3.98371 139.14 3.60548C139.14 3.2556 138.792 2.7836 137.854 1.86054C136.558 0.586298 136.475 0.536262 135.973 0.731401ZM136.524 18.807C136.473 18.8583 135.854 18.9486 135.147 19.0075C133.145 19.1739 132.31 19.3124 130.924 19.7071C127.372 20.7184 125.288 21.9372 122.738 24.4949C119.461 27.7812 118.114 30.5715 117.324 35.7125C116.992 37.8778 116.996 39.4845 117.342 41.8361C117.93 45.831 119.071 48.6161 121.221 51.3069C124.423 55.315 128.439 57.5888 133.494 58.2569C136.856 58.7011 145.01 58.6193 145.489 58.1368C145.557 58.0686 145.641 57.2673 145.677 56.3561C145.726 55.0798 145.675 54.5972 145.453 54.2555L145.165 53.812L140.156 53.7186C134.965 53.6221 133.251 53.5011 132.953 53.2099C132.857 53.1164 132.6 53.0396 132.381 53.0396C131.243 53.0396 127.965 51.2309 126.357 49.7162C125.385 48.7998 123.934 46.7224 123.438 45.5343C123.007 44.5049 122.386 42.1256 122.386 41.5074C122.386 41.0066 122.412 40.9939 123.442 40.9892C124.023 40.9864 128.958 40.9334 134.41 40.8712C143.226 40.7706 144.349 40.725 144.558 40.459C144.855 40.0812 144.765 36.8216 144.449 36.5027C144.29 36.3426 141.398 36.2839 133.356 36.2774L122.478 36.2685L122.515 35.461C122.565 34.3582 123.228 32.2184 123.899 30.9934C125.45 28.162 127.468 26.3525 130.465 25.107C133.443 23.8697 135.391 23.5743 140.579 23.5743C143.145 23.5743 144.95 23.4987 145.165 23.3825C145.481 23.2118 145.521 22.9792 145.521 21.2739C145.521 19.7695 145.459 19.3061 145.236 19.1193C145.03 18.9466 143.805 18.858 140.784 18.7972C138.491 18.7512 136.574 18.7555 136.524 18.807ZM58.8584 19.2925C56.5229 19.7797 54.8909 20.3273 53.2707 21.1672C46.4613 24.6973 42.3605 31.61 42.4875 39.3438C42.6023 46.3234 46.0559 52.2945 52.1568 56.0612C53.5748 56.9367 55.8955 57.9101 57.2977 58.2174C57.9036 58.3503 58.6886 58.5317 59.042 58.6206C60.1007 58.8871 64.3247 58.8123 65.8033 58.5009C70.7724 57.4546 74.8457 54.84 77.9198 50.7232C78.8847 49.4313 80.2722 46.7598 80.7114 45.349C80.8383 44.9413 81.0075 44.4409 81.0876 44.2371C81.3843 43.4823 81.4829 42.494 81.5668 39.432C81.6421 36.6834 81.6043 36.0867 81.2613 34.6138C79.7462 28.1066 75.6317 23.1069 69.6912 20.5544C66.3629 19.1243 62.0649 18.6235 58.8584 19.2925ZM7.18006 19.4499C5.63703 20.0944 5.08475 21.1198 4.7089 24.0376C4.59085 24.9549 4.42009 26.2475 4.32939 26.91C4.23869 27.5725 4.07326 28.8234 3.96181 29.6897C3.85018 30.5561 3.68567 31.7653 3.59643 32.3768C3.50702 32.9884 3.34269 34.2393 3.23106 35.1566C3.11943 36.0739 2.95271 37.3248 2.86036 37.9363C2.76819 38.5479 2.60331 39.7571 2.49443 40.6234C2.38537 41.4898 2.21608 42.8031 2.11822 43.5422C2.02054 44.2812 1.85511 45.5321 1.75083 46.3219C1.55657 47.7931 1.14713 50.7104 0.833896 52.8543C0.737136 53.5168 0.62128 54.4341 0.576664 54.8928C0.531864 55.3515 0.437307 56.2047 0.366435 56.7888C0.181727 58.3095 0.312822 58.4138 2.40997 58.4138C3.3504 58.4138 4.31121 58.3402 4.54494 58.2506C5.07465 58.0471 5.29406 57.2656 5.69597 54.1515C5.86048 52.8775 6.03179 51.5849 6.07677 51.2791C6.20713 50.3915 7.0587 44.1941 7.27351 42.5692C7.38129 41.7538 7.54433 40.5447 7.63595 39.8821C7.9815 37.382 8.53838 33.0536 8.73282 31.3576C9.06918 28.424 9.35432 26.6111 9.41767 27.0026C9.45072 27.2065 9.55739 27.6651 9.65489 28.0219C11.4131 34.4577 12.3919 37.9148 13.2501 40.7203C13.5938 41.8439 13.8749 42.9023 13.8749 43.0722C13.8749 43.2423 13.9575 43.4328 14.0585 43.4958C14.1595 43.5588 14.2421 43.8099 14.2421 44.054C14.2421 44.2981 14.3201 44.6893 14.4154 44.9233C14.5109 45.1574 14.7672 45.9744 14.9853 46.7389C15.2035 47.5033 15.446 48.3372 15.5242 48.592C15.6024 48.8468 15.854 49.6808 16.0828 50.4452C17.0296 53.6065 18.118 56.7901 18.4011 57.2261C18.9147 58.0172 19.57 58.2285 21.5096 58.2285C24.4414 58.2285 24.7624 57.8392 26.1706 52.5763C26.2525 52.2706 26.6184 51.0197 26.9842 49.7966C27.3497 48.5735 27.8157 46.989 28.0195 46.2756C28.4797 44.6652 29.2855 41.9833 29.4952 41.3647C29.5817 41.1099 30.3152 38.5247 31.1254 35.6199C31.9357 32.715 32.6743 30.0882 32.7672 29.7824C32.8599 29.4766 33.0412 28.7678 33.1699 28.2072C33.5007 26.768 33.6557 26.7045 33.7862 27.9544C33.8487 28.5521 33.9798 29.6875 34.0774 30.4773C34.5466 34.2687 34.6358 34.9839 34.8166 36.4075C34.9235 37.2482 35.0898 38.4784 35.1862 39.1409C35.6333 42.2116 36.1355 45.7723 36.4797 48.3141C36.6867 49.8429 36.8908 51.2606 36.9331 51.4644C37.0414 51.9857 37.3096 53.7023 37.4545 54.8001C37.6954 56.6276 37.9805 57.8571 38.2077 58.0475C38.3472 58.1642 39.2652 58.2202 40.524 58.1885L42.6093 58.1358L42.6717 57.4872C42.706 57.1305 42.6412 56.2132 42.5274 55.4488C42.2609 53.6575 42.034 52.0189 41.7962 50.1672C41.4285 47.3043 41.2058 45.7044 40.945 44.0518C40.8004 43.1345 40.3089 39.5903 39.853 36.1758C39.3969 32.7614 38.941 29.384 38.8396 28.6705C38.7385 27.957 38.5743 26.7688 38.475 26.0297C37.8634 21.477 37.7294 20.9937 36.824 20.0801C35.964 19.2121 34.7403 18.9651 32.6986 19.2475C32.0418 19.3383 31.6531 19.5338 31.132 20.0351C30.5401 20.6048 30.3411 21.0254 29.7653 22.9257C28.6673 26.5479 28.5268 26.9871 28.3576 27.3243C28.2689 27.5013 28.1965 27.7515 28.1971 27.8803C28.1976 28.0091 27.9437 28.9485 27.633 29.9677C27.3222 30.9869 26.9801 32.1544 26.8729 32.5621C26.5512 33.7839 26.3856 34.3597 26.0201 35.5272C25.577 36.9427 24.121 41.8415 23.7896 43.0325C23.6903 43.3893 23.4516 44.2232 23.2594 44.8857C23.0669 45.5482 22.7284 46.7991 22.507 47.6654C22.2857 48.5318 22.0292 49.4323 21.9372 49.6663C21.8452 49.9004 21.7687 50.2756 21.7672 50.5002C21.7655 50.7248 21.6912 51.0252 21.6016 51.1679C21.4182 51.4604 21.4641 51.601 19.641 45.1637C18.9771 42.8194 18.363 40.6512 18.2763 40.3454C17.8481 38.8362 17.6974 38.2684 17.6122 37.8437C17.5611 37.5889 17.4514 37.2136 17.3682 37.0097C17.1453 36.464 16.8963 35.6857 16.4782 34.23C16.2735 33.5165 15.8431 32.0571 15.522 30.9869C15.2009 29.9167 14.7885 28.5408 14.6058 27.9292C12.9392 22.3532 12.3344 20.6852 11.7743 20.1198C10.7991 19.1356 8.67406 18.8255 7.18006 19.4499ZM86.2051 19.673C84.9532 20.0564 84.3629 20.632 83.9282 21.8931C83.6812 22.6095 83.6452 24.9178 83.6452 40.0853C83.6452 49.6396 83.6954 57.5888 83.7567 57.75C83.8496 57.9946 84.2295 58.0432 86.0453 58.0432C88.0075 58.0432 88.2411 58.008 88.412 57.6859C88.5403 57.4437 88.567 52.2904 88.4945 41.7023C88.3903 26.4847 88.3964 26.0911 88.7247 26.6494C89.5089 27.9839 90.4381 29.4631 91.8616 31.6437C92.6948 32.9198 93.3764 33.9972 93.3764 34.0382C93.3764 34.0791 93.9547 34.9935 94.6616 36.0702C95.3685 37.1469 95.9468 38.1046 95.9468 38.1984C95.9468 38.2921 96.0153 38.3965 96.0989 38.4306C96.1826 38.4645 96.6972 39.2011 97.2427 40.0675C97.7882 40.9338 98.2952 41.726 98.3692 41.828C98.4433 41.9299 100.621 45.2239 103.208 49.148C105.795 53.0721 108.214 56.5612 108.585 56.9016C109.691 57.9185 110.183 58.0992 111.572 57.9987C113.617 57.8512 114.635 56.9641 115.044 54.9732C115.192 54.2535 115.235 49.0813 115.193 36.9095C115.141 21.9948 115.099 19.8324 114.858 19.6787C114.445 19.4152 110.756 19.4499 110.488 19.7197C110.321 19.8891 110.267 23.6549 110.264 35.5179L110.26 51.0938L109.439 49.7966C107.696 47.0459 104.362 41.8971 101.501 37.5414C99.86 35.0428 98.5173 32.9211 98.5173 32.8266C98.5173 32.7321 98.4402 32.6548 98.346 32.6548C98.2518 32.6548 98.1226 32.4886 98.0587 32.2853C97.9948 32.082 97.8275 31.7997 97.6872 31.6582C97.5468 31.5164 97.2837 31.1467 97.1025 30.8367C96.8041 30.3259 93.5682 25.408 93.2387 24.9642C93.1628 24.8622 92.6937 24.1534 92.1961 23.389C90.8099 21.2599 89.9655 20.3162 89.0633 19.8881C88.2284 19.4921 87.0785 19.4056 86.2051 19.673ZM65.0435 24.1111C65.8325 24.3044 66.7246 24.56 67.0261 24.679C72.1091 26.6863 75.6334 31.0753 76.4855 36.4595C77.5563 43.2245 74.2519 49.7065 68.2326 52.6495C67.5852 52.9661 66.9099 53.225 66.7318 53.225C66.5537 53.225 66.3626 53.2991 66.3069 53.3899C66.2515 53.4805 65.8955 53.6169 65.5158 53.6929C64.5889 53.8787 59.6832 53.886 58.7817 53.7031C57.7099 53.4853 55.3802 52.4487 54.2521 51.6874C52.5383 50.5308 50.532 48.449 49.7515 47.0168C48.1283 44.039 47.661 42.4901 47.5231 39.6299C47.3151 35.3174 48.8992 31.2199 51.9789 28.1045C55.4587 24.5843 60.5825 23.0181 65.0435 24.1111Z" fill="white"/>
</svg>
