<svg width="121" height="123" viewBox="0 0 121 123" fill="none" xmlns="http://www.w3.org/2000/svg">
<path d="M62.4889 122.852C62.3228 122.852 62.1567 122.779 62.046 122.647C61.8522 122.443 61.8107 122.137 61.9353 121.874L88.1918 67.6577C88.2472 67.5264 88.3441 67.4243 88.4687 67.3659L113.646 54.0342C113.826 53.9321 114.033 53.9467 114.213 54.0342C114.393 54.1363 114.518 54.3113 114.545 54.5155L120.635 92.1186C120.677 92.4104 120.539 92.7021 120.289 92.8188L62.7657 122.75C62.6827 122.822 62.5858 122.852 62.4889 122.852ZM89.2161 68.4745L63.9146 120.707L119.32 91.8707L113.452 55.6387L89.2161 68.4745Z" fill="white"/>
<path d="M34.6821 109.899C34.5576 109.899 34.433 109.855 34.3223 109.782L1.25582 85.2486C1.0482 85.1027 0.951313 84.8401 0.992837 84.5776L14.3633 9.10888C14.4048 8.8755 14.571 8.6713 14.7925 8.59836C15.0139 8.52543 15.2492 8.58378 15.4291 8.75881L61.5893 55.6679C61.7969 55.8721 61.8384 56.193 61.7138 56.4555L35.2357 109.534C35.1527 109.71 35.0005 109.826 34.8205 109.87C34.779 109.885 34.7237 109.899 34.6821 109.899ZM2.30776 84.4026L34.4468 108.251L60.3574 56.2805L15.3738 10.5675L2.30776 84.4026Z" fill="white"/>
<path d="M88.7455 68.6349C88.6487 68.6349 88.5379 68.6058 88.441 68.5474L71.8178 58.9206L61.0218 56.8056C60.6757 56.7326 60.4543 56.3972 60.5235 56.0325C60.5927 55.6679 60.9248 55.4199 61.257 55.5074L72.15 57.6516C72.2192 57.6662 72.2746 57.6953 72.3438 57.7245L89.05 67.4097C89.3545 67.5847 89.4652 67.9931 89.2991 68.314C89.1884 68.5182 88.967 68.6349 88.7455 68.6349Z" fill="white"/>
<path d="M62.4889 122.852C62.3366 122.852 62.1983 122.793 62.0737 122.691L47.1115 109.155L34.7098 109.899C34.3361 109.943 34.0731 109.637 34.0455 109.272C34.0316 108.907 34.2946 108.586 34.6406 108.572L47.2914 107.813C47.4298 107.799 47.6098 107.857 47.7343 107.974L62.8904 121.685C63.1534 121.918 63.181 122.341 62.9596 122.618C62.835 122.779 62.6688 122.852 62.4889 122.852Z" fill="white"/>
<path d="M47.3329 109.141C47.236 109.141 47.1392 109.111 47.0423 109.068C46.7378 108.893 46.6132 108.499 46.7793 108.178L71.4856 57.9871C71.5548 57.8558 71.6656 57.7391 71.804 57.6807L96.1505 46.7411C96.4689 46.5953 96.8426 46.7557 96.981 47.0912C97.1194 47.4267 96.9671 47.8205 96.6488 47.9664L72.5099 58.8185L47.9143 108.791C47.7759 109.009 47.5543 109.141 47.3329 109.141Z" fill="white"/>
<path d="M113.936 55.3032C113.853 55.3032 113.784 55.2886 113.701 55.2594L96.1505 47.9664C96.0952 47.9372 96.0537 47.908 95.9983 47.8789L37.7272 1.8158L26.7789 13.8494C26.6128 14.039 26.3498 14.1119 26.1145 14.0098L14.7787 9.85277C14.4465 9.73608 14.2803 9.35684 14.3911 9.00677C14.5018 8.6567 14.8617 8.46708 15.1939 8.59836L26.156 12.6095L37.2151 0.459286C37.4365 0.211322 37.7964 0.18215 38.0456 0.386357L96.7042 46.7411L114.172 54.005C114.49 54.1363 114.656 54.5301 114.532 54.8656C114.421 55.1428 114.185 55.3032 113.936 55.3032Z" fill="white"/>
<path d="M72.0393 58.9497C71.8871 58.9497 71.7348 58.8914 71.6102 58.7747L25.893 13.864C25.6439 13.616 25.6301 13.193 25.8654 12.9304C26.1007 12.6679 26.502 12.6387 26.7511 12.9013L72.4684 57.812C72.7175 58.06 72.7313 58.483 72.496 58.7455C72.3714 58.8914 72.2054 58.9497 72.0393 58.9497Z" fill="white"/>
<path d="M39.9279 109.257C39.8726 109.257 39.8033 109.243 39.748 109.199C39.6096 109.097 39.5681 108.893 39.6649 108.732L68.1776 63.7632L38.9452 101.337C38.8344 101.483 38.6407 101.498 38.5023 101.381C38.3638 101.264 38.35 101.06 38.4608 100.914L71.7763 58.0746C71.8871 57.9433 72.067 57.9141 72.2054 58.0162C72.3438 58.1183 72.3715 58.3225 72.2746 58.4684L40.1771 109.097C40.1355 109.199 40.0387 109.257 39.9279 109.257Z" fill="white"/>
<path d="M44.3433 108.98C44.2879 108.98 44.2326 108.966 44.1911 108.936C44.0388 108.849 43.9834 108.645 44.0803 108.484L70.7106 60.0583L48.8139 81.5874C48.6894 81.7187 48.4817 81.7041 48.371 81.5728C48.2464 81.4416 48.2603 81.2228 48.3849 81.1061L71.8317 58.06C71.9424 57.9433 72.1224 57.9433 72.2469 58.0454C72.3715 58.1475 72.3992 58.3225 72.33 58.4684L44.6477 108.834C44.5647 108.922 44.454 108.98 44.3433 108.98Z" fill="white"/>
<path d="M55.3746 68.0515C55.2638 68.0515 55.1532 67.9932 55.0978 67.8765C55.0147 67.716 55.0701 67.5118 55.2223 67.4243L69.977 59.081L58.6826 61.5461C58.5027 61.5898 58.3504 61.4731 58.3089 61.2835C58.2673 61.1085 58.3781 60.9335 58.5581 60.8897L71.9839 57.9579C72.1361 57.9287 72.2884 58.0162 72.3438 58.1621C72.3991 58.3225 72.33 58.4976 72.1915 58.5705L55.5269 67.9932C55.4715 68.0369 55.4299 68.0515 55.3746 68.0515Z" fill="white"/>
<path d="M113.452 95.9986C113.383 95.9986 113.327 95.984 113.272 95.9402L85.1329 75.3446C84.9945 75.2425 84.9531 75.0528 85.0361 74.907C85.1192 74.7611 85.2991 74.7028 85.4375 74.7757L120.151 91.9582C120.303 92.0311 120.372 92.2353 120.303 92.3958C120.234 92.5562 120.04 92.6291 119.888 92.5562L88.5656 77.0511L113.632 95.4005C113.77 95.5026 113.812 95.7068 113.715 95.8673C113.646 95.9548 113.549 95.9986 113.452 95.9986Z" fill="white"/>
<path d="M100.677 102.65C100.566 102.65 100.469 102.591 100.4 102.489L85.0223 75.257C84.9393 75.1112 84.9669 74.9216 85.1053 74.8195C85.2299 74.7174 85.4098 74.7319 85.5206 74.8486L107.403 98.3761C107.528 98.5074 107.528 98.7116 107.403 98.8428C107.279 98.9741 107.085 98.9741 106.96 98.8428L86.9185 77.2845L100.953 102.139C101.036 102.3 100.995 102.504 100.843 102.591C100.787 102.635 100.732 102.65 100.677 102.65Z" fill="white"/>
<path d="M89.2853 108.572C89.133 108.572 88.9946 108.455 88.9669 108.28L84.9807 75.1112C84.9669 74.9361 85.0637 74.7903 85.216 74.7465C85.3821 74.7028 85.5343 74.8049 85.5897 74.9653L95.1677 105.217C95.2231 105.392 95.1401 105.582 94.974 105.64C94.8079 105.698 94.6279 105.596 94.5726 105.436L86.0049 78.3785L89.5898 108.207C89.6175 108.382 89.4929 108.557 89.313 108.572C89.313 108.572 89.2991 108.572 89.2853 108.572Z" fill="white"/>
<path d="M78.3093 114.29C78.2955 114.29 78.2678 114.29 78.254 114.29C78.0879 114.26 77.9633 114.085 78.0049 113.896L85.0085 75.0091C85.0361 74.8341 85.1607 74.7174 85.3545 74.7465C85.5206 74.7611 85.6452 74.907 85.6313 75.082L84.7593 110.774C84.7593 110.964 84.5793 111.124 84.4409 111.095C84.261 111.095 84.1365 110.935 84.1365 110.76L84.9116 79.1661L78.6277 114.027C78.5862 114.173 78.4616 114.29 78.3093 114.29Z" fill="white"/>
<path d="M66.9873 120.182C66.9458 120.182 66.9043 120.168 66.8628 120.153C66.6967 120.08 66.6275 119.891 66.6967 119.716L85.0223 74.9507C85.0915 74.7903 85.2576 74.7028 85.4237 74.7757C85.5759 74.834 85.659 75.0237 85.6175 75.1841L72.6068 117.192C72.5514 117.367 72.3715 117.455 72.2054 117.411C72.0394 117.353 71.9563 117.163 71.9978 116.988L82.8769 81.8646L67.278 119.993C67.2226 120.095 67.1119 120.182 66.9873 120.182Z" fill="white"/>
<path d="M116.801 90.9955C116.691 90.9955 116.58 90.9372 116.525 90.8205L101.756 61.1085C101.673 60.948 101.728 60.7438 101.895 60.6563C102.047 60.5688 102.241 60.6271 102.324 60.8022L115.625 87.5532L107.417 58.0454C107.362 57.8704 107.459 57.6807 107.625 57.637C107.791 57.5932 107.971 57.6807 108.012 57.8704L117.106 90.5871C117.147 90.7475 117.064 90.9226 116.926 90.9809C116.884 90.9809 116.843 90.9955 116.801 90.9955Z" fill="white"/>
<path d="M116.801 90.9955C116.635 90.9955 116.511 90.8642 116.483 90.7038L112.469 55.2886C112.441 55.099 112.566 54.9385 112.746 54.924C112.954 54.924 113.078 55.0261 113.092 55.2157L116.871 88.5742L118.089 82.2292C118.116 82.0542 118.296 81.9229 118.462 81.9667C118.628 81.9958 118.739 82.1709 118.711 82.3605L117.106 90.7329C117.078 90.8788 116.954 90.9955 116.801 90.9955Z" fill="white"/>
<path d="M116.801 90.9955C116.732 90.9955 116.649 90.9663 116.594 90.908L91.0431 66.8992C90.9186 66.7825 90.9047 66.5637 91.0154 66.4324C91.1261 66.3012 91.3338 66.2866 91.4583 66.4033L114.462 88.0199L96.7042 63.8361C96.5934 63.6902 96.6211 63.486 96.7595 63.3693C96.8979 63.2526 97.0917 63.2818 97.2024 63.4277L117.051 90.4558C117.147 90.5871 117.134 90.7913 117.023 90.908C116.954 90.9663 116.884 90.9955 116.801 90.9955Z" fill="white"/>
<path d="M116.428 90.6454C116.372 90.6454 116.317 90.6308 116.262 90.5871L87.1815 71.1292C87.0293 71.0271 86.9877 70.8228 87.0846 70.677C87.1815 70.5165 87.3753 70.4728 87.5137 70.5749L116.594 90.0328C116.746 90.1349 116.788 90.3391 116.691 90.485C116.635 90.5871 116.539 90.6454 116.428 90.6454Z" fill="white"/>
</svg>
