<svg width="125" height="133" viewBox="0 0 125 133" fill="none" xmlns="http://www.w3.org/2000/svg">
<path d="M66.1819 79.2758C65.919 79.2758 65.6837 79.1154 65.5868 78.8382C65.5591 78.7653 65.5313 78.6924 65.5037 78.6194C65.3237 78.1527 65.1438 77.7151 64.9639 77.2921C64.1611 75.4397 63.2061 73.6601 62.0988 71.9973C61.905 71.691 61.9742 71.2826 62.251 71.0784C62.5417 70.8742 62.9292 70.9471 63.123 71.2388C64.2718 72.9746 65.2823 74.8124 66.0989 76.7378C66.2927 77.1754 66.4864 77.6422 66.6525 78.1089C66.6802 78.1819 66.7217 78.2839 66.7632 78.4006C66.8878 78.7507 66.7078 79.13 66.3895 79.2466C66.3341 79.2612 66.2511 79.2758 66.1819 79.2758Z" fill="white"/>
<path d="M36.036 126.01C17.8072 126.01 2.9834 110.388 2.9834 91.1781C2.9834 73.0767 15.8557 58.1697 32.9356 56.5068C32.9494 56.5068 32.9632 56.5068 32.9771 56.5068C33.0186 56.5068 33.0602 56.4922 33.1017 56.4922C33.4477 56.4922 33.7245 56.784 33.7245 57.1632C33.7245 57.5133 33.4616 57.805 33.1432 57.8196C33.1294 57.8196 33.1294 57.8196 33.1155 57.8196C33.1017 57.8196 33.074 57.8196 33.0602 57.8196C16.6308 59.4095 4.22913 73.7477 4.22913 91.1781C4.22913 109.659 18.4854 124.682 36.0221 124.682C46.3753 124.682 56.1194 119.329 62.0711 110.388C62.0988 110.359 62.1265 110.315 62.1542 110.286C62.5002 109.921 63.2338 110.198 63.2338 110.753C63.2338 110.884 63.1923 111.001 63.1369 111.103C63.1231 111.132 63.0954 111.176 63.0677 111.205C56.8946 120.467 46.7905 126.01 36.036 126.01Z" fill="white"/>
<path d="M89.1859 126.01C78.4314 126.01 68.3273 120.467 62.1403 111.19C62.1265 111.161 62.0988 111.147 62.085 111.117C62.0158 111.015 61.9742 110.884 61.9742 110.738C61.9742 110.184 62.7078 109.907 63.04 110.271C63.0677 110.301 63.0954 110.344 63.1231 110.373C69.0747 119.329 78.8051 124.668 89.1721 124.668C106.695 124.668 120.965 109.644 120.965 91.1635C120.965 73.733 108.563 59.3803 92.1064 57.805C92.0925 57.805 92.0787 57.805 92.051 57.805C91.788 57.805 91.5527 57.63 91.4558 57.3674C91.3451 57.0173 91.5112 56.6381 91.8434 56.5214C91.9403 56.4922 92.0787 56.4776 92.1894 56.4922C92.2309 56.4922 92.2586 56.4922 92.2863 56.5068C109.366 58.1842 122.238 73.0767 122.238 91.1781C122.238 110.388 107.415 126.01 89.1859 126.01Z" fill="white"/>
<path d="M59.0399 79.1737C58.9846 79.1737 58.9292 79.1591 58.8738 79.1445C58.5555 79.0278 58.3479 78.7361 58.4586 78.4006C58.4863 78.3131 58.5278 78.2256 58.5555 78.1381C58.7078 77.7005 58.9154 77.2191 59.123 76.7232C59.9534 74.8124 60.95 72.96 62.0988 71.2388C62.3065 70.9325 62.694 70.8742 62.9708 71.0784C63.2477 71.2826 63.3168 71.7056 63.1231 71.9973C62.0158 73.6601 61.0607 75.4396 60.258 77.2775C60.0503 77.7442 59.8704 78.1964 59.6905 78.6632C59.5936 78.9549 59.3167 79.1737 59.0399 79.1737Z" fill="white"/>
<path d="M92.0925 57.8925C91.9956 57.8925 91.9126 57.8779 91.8295 57.8342C91.5112 57.6737 91.3866 57.2945 91.5251 56.959L91.5389 56.9444C91.5527 56.8569 91.5804 56.8131 91.6081 56.7694C93.4628 52.4373 94.4039 47.8135 94.4039 43.0001C94.4039 24.5194 80.1476 9.49568 62.6109 9.49568C45.0743 9.49568 30.8179 24.5194 30.8179 43.0001C30.8179 47.7989 31.7591 52.4227 33.6138 56.7548C33.6276 56.784 33.6415 56.8131 33.6554 56.8423C33.7938 57.0903 33.7522 57.4258 33.5446 57.63C33.2955 57.8925 32.8941 57.8925 32.6588 57.63C32.6172 57.5862 32.5757 57.5279 32.548 57.4695C32.5342 57.4404 32.4788 57.3382 32.465 57.3091C30.5272 52.7874 29.5584 47.9739 29.5584 43.0001C29.5584 23.7901 44.3822 8.16833 62.6109 8.16833C80.8397 8.16833 95.6635 23.7901 95.6635 43.0001C95.6635 48.0323 94.667 52.8749 92.7154 57.4112C92.7154 57.4258 92.7015 57.4404 92.7015 57.4549C92.6877 57.4841 92.6876 57.5133 92.6738 57.5278C92.5492 57.7466 92.3278 57.8925 92.0925 57.8925ZM33.6968 56.9298C33.7107 56.9882 33.7245 57.0611 33.7245 57.1194C33.7245 57.0465 33.7107 56.9882 33.6968 56.9298Z" fill="white"/>
<path d="M67.6906 77.3942C67.5245 77.3942 67.3722 77.3358 67.2477 77.2046C66.9985 76.942 66.9985 76.519 67.2477 76.271C67.4968 76.0085 67.8982 76.0085 68.1474 76.271C68.3965 76.5336 68.3965 76.942 68.1474 77.2046C68.009 77.3358 67.8428 77.3942 67.6906 77.3942Z" fill="white"/>
<path d="M62.6109 77.8026C61.6005 77.8026 60.6039 77.7589 59.635 77.6568C59.3028 77.6276 58.9707 77.5984 58.6247 77.5547C58.2786 77.5109 58.0295 77.19 58.071 76.8253C58.1125 76.4607 58.417 76.2127 58.763 76.2419C59.0814 76.2857 59.3997 76.3148 59.7319 76.344C61.6143 76.5336 63.6075 76.5336 65.476 76.344C65.8221 76.3148 66.1266 76.5774 66.1681 76.942C66.1958 77.3067 65.9466 77.6276 65.6005 77.6713C64.6317 77.7588 63.6213 77.8026 62.6109 77.8026Z" fill="white"/>
<path d="M62.6109 87.0502C62.4725 87.0502 62.3479 87.0064 62.2233 86.9189C61.9465 86.7001 61.8912 86.2772 62.1127 85.9854C63.0539 84.7019 63.8427 83.3016 64.4656 81.843C64.9362 80.7198 65.31 79.5821 65.573 78.459C65.6145 78.3131 65.6422 78.1673 65.6699 78.0214C65.7529 77.613 65.8359 77.2191 65.8913 76.8107C66.0712 75.6876 66.1681 74.5207 66.1681 73.3392C66.1681 72.8725 66.1542 72.4203 66.1265 71.9536C66.0712 70.9909 65.9466 70.0574 65.7805 69.1676C65.6698 68.5987 65.5453 68.0445 65.393 67.5048C64.7148 65.0397 63.6075 62.7497 62.1127 60.6931C59.8566 57.6008 56.853 55.2379 53.4066 53.8668C51.1781 52.977 48.839 52.5394 46.4445 52.5394C41.7109 52.5394 37.1156 54.3335 33.5307 57.6154C33.5169 57.6299 33.4892 57.6591 33.4754 57.6737C33.2263 57.9363 32.8248 57.9363 32.5757 57.6737C32.3266 57.4112 32.3266 57.0028 32.5757 56.7402C32.6034 56.7111 32.6726 56.6527 32.7142 56.6235C36.6174 53.1083 41.4479 51.2267 46.4584 51.2267C49.0051 51.2267 51.4965 51.708 53.8633 52.6415C57.5312 54.1001 60.7285 56.6089 63.1231 59.9054C64.7148 62.0933 65.8913 64.5292 66.611 67.1547C66.7771 67.7382 66.9155 68.3216 67.0263 68.9196C67.2062 69.8677 67.3308 70.8596 67.4 71.8806C67.4277 72.362 67.4415 72.8579 67.4415 73.3538C67.4415 74.6082 67.3446 75.848 67.1508 77.0295C67.0954 77.4525 66.9985 77.8901 66.9155 78.3131C66.8878 78.4736 66.8463 78.634 66.8047 78.7945C66.5279 79.9759 66.1266 81.2012 65.6283 82.3827C64.9639 83.9434 64.1196 85.4311 63.1231 86.7877C62.9846 86.9481 62.8047 87.0502 62.6109 87.0502Z" fill="white"/>
<path d="M62.6109 111.424C62.2649 111.424 61.9742 111.132 61.9742 110.753V86.5981C61.0192 85.2707 60.2164 83.8267 59.5797 82.3097C59.0953 81.172 58.7077 79.9759 58.417 78.7653C58.3894 78.6923 58.3617 78.5611 58.334 78.4298C58.2233 77.9922 58.1265 77.4963 58.0573 77.0004C57.8635 75.8335 57.7666 74.5936 57.7666 73.3392C57.7666 72.8433 57.7804 72.3474 57.808 71.8661C57.8772 70.8304 58.0018 69.8386 58.1818 68.9051C58.3063 68.307 58.4309 67.709 58.597 67.1256C59.3167 64.5 60.4932 62.0642 62.085 59.8762C64.4518 56.6235 67.6075 54.1293 71.2201 52.6561C73.6284 51.6788 76.1614 51.1975 78.7496 51.1975C83.7601 51.1975 88.6184 53.0937 92.4247 56.536C92.4939 56.5798 92.5769 56.6673 92.6185 56.7402C92.8538 57.0174 92.8261 57.4258 92.5631 57.6737C92.3002 57.9217 91.8987 57.8925 91.6773 57.6154C88.0371 54.3189 83.4695 52.5394 78.7496 52.5394C76.3136 52.5394 73.9329 53.0062 71.663 53.9105C68.2719 55.2816 65.2961 57.63 63.0815 60.6931C61.5867 62.7497 60.4794 65.0397 59.8012 67.5048C59.6489 68.059 59.5244 68.6133 59.4137 69.1676C59.2476 70.0428 59.123 70.9909 59.0538 71.9536C59.0261 72.4057 59.0123 72.8725 59.0123 73.3392C59.0123 74.5207 59.1091 75.673 59.289 76.7962C59.3583 77.2629 59.4551 77.7151 59.552 78.1527C59.5659 78.2548 59.5798 78.3277 59.6074 78.4006C59.8981 79.5967 60.258 80.7198 60.7147 81.7846C61.3376 83.2724 62.1265 84.6727 63.0815 85.9854C63.1645 86.1021 63.2061 86.248 63.2061 86.3938V110.767C63.2338 111.117 62.957 111.424 62.6109 111.424Z" fill="white"/>
<path d="M62.6248 111.424C62.2788 111.424 61.9881 111.132 61.9881 110.753C61.9881 110.446 62.1819 110.184 62.4449 110.111C69.1993 107.792 74.2652 101.811 75.677 94.4891C75.9399 93.1472 76.0783 91.747 76.0783 90.3321C76.0783 87.9546 75.7046 85.6354 74.9572 83.4037C74.0852 80.7782 72.7288 78.4006 70.9295 76.3148C70.4173 75.7168 69.8637 75.1479 69.2685 74.6083C69.0055 74.3603 68.9779 73.9519 69.2132 73.6747C69.4485 73.3976 69.8498 73.3684 70.099 73.6164C70.7218 74.1852 71.317 74.7979 71.8568 75.4251C73.7669 77.6276 75.2064 80.1655 76.1337 82.9661C76.9227 85.329 77.3241 87.8087 77.3241 90.3321C77.3241 91.8345 77.1857 93.3222 76.895 94.7663C75.4001 102.526 70.0298 108.886 62.8739 111.365C62.8047 111.409 62.7217 111.424 62.6248 111.424Z" fill="white"/>
<path d="M62.611 70.5825C62.5418 70.5825 62.4864 70.5679 62.4172 70.5533C61.9189 70.3783 61.4207 70.2324 60.9085 70.1011C60.2165 69.9261 59.4967 69.7948 58.7355 69.6927C56.8669 69.4593 54.9015 69.5031 53.116 69.8094C52.7838 69.8823 52.4516 69.6344 52.3962 69.2697C52.3408 68.9051 52.5623 68.5695 52.9083 68.5112C54.8184 68.1611 56.9084 68.1174 58.9016 68.3799C59.7043 68.482 60.4794 68.6279 61.213 68.8175C61.7528 68.9488 62.2788 69.1092 62.8048 69.2843C63.1369 69.401 63.3168 69.7656 63.2061 70.1157C63.1231 70.4074 62.8739 70.5825 62.611 70.5825Z" fill="white"/>
<path d="M62.6248 111.424C62.5279 111.424 62.4449 111.409 62.3757 111.365C55.206 108.9 49.8356 102.541 48.3269 94.7663C48.0501 93.3222 47.9117 91.8345 47.9117 90.3321C47.9117 87.8233 48.313 85.3437 49.0881 82.9953C50.0293 80.1802 51.4827 77.6421 53.3789 75.4396C53.9187 74.8124 54.4862 74.2436 55.0398 73.7039C55.981 72.8287 57.033 72.0265 58.1264 71.3264C58.4171 71.1367 58.8185 71.2388 58.9846 71.5597C59.1645 71.8806 59.0676 72.2891 58.7631 72.4641C57.725 73.1205 56.7423 73.8644 55.8565 74.6958C55.3305 75.1917 54.7907 75.746 54.2786 76.3294C52.4931 78.4006 51.1367 80.7928 50.2508 83.4329C49.5173 85.6499 49.1436 87.9692 49.1436 90.3321C49.1436 91.747 49.2819 93.1472 49.5449 94.4891C50.9567 101.811 56.0364 107.806 62.7909 110.111C62.9016 110.14 62.9847 110.213 63.0677 110.301C63.1785 110.417 63.2477 110.578 63.2477 110.753C63.2477 111.132 62.9708 111.424 62.6248 111.424Z" fill="white"/>
<path d="M62.611 70.5825C62.348 70.5825 62.0989 70.4074 62.0158 70.1157C61.9051 69.7656 62.0988 69.3864 62.431 69.2843C62.957 69.1093 63.483 68.9488 64.0228 68.8176C64.7564 68.6279 65.5314 68.4821 66.3342 68.38C68.272 68.132 70.2928 68.1612 72.189 68.4821C72.535 68.5404 72.7703 68.8759 72.715 69.2405C72.6596 69.6052 72.3274 69.8532 71.9952 69.7948C70.2097 69.5031 68.3135 69.4593 66.4865 69.6927C65.739 69.7948 65.0055 69.9261 64.3273 70.1011C63.8151 70.2324 63.3169 70.3783 62.8186 70.5533C62.7356 70.5679 62.6802 70.5825 62.611 70.5825Z" fill="white"/>
<path d="M52.8668 84.1476C51.7457 84.1476 50.6522 84.0601 49.5864 83.885C45.7109 83.2432 42.0846 81.4637 39.0949 78.7361C34.4997 74.5207 31.8559 68.4237 31.8559 62.0204C31.8559 60.343 32.0359 58.6802 32.3819 57.0611C32.3819 57.0465 32.3819 57.0319 32.3958 57.0173C32.4235 56.9006 32.4788 56.784 32.5619 56.711L32.8664 57.0319H33.0325L33.6415 57.207C33.6415 57.2215 33.6276 57.2507 33.6276 57.2653C33.6276 57.2945 33.6276 57.3236 33.6138 57.3528C33.2816 58.8698 33.1155 60.4305 33.1155 62.0204C33.1155 68.0445 35.5931 73.7768 39.9115 77.7297C42.7212 80.2968 46.1261 81.9597 49.7664 82.5723C52.2993 82.9953 55.0537 82.8786 57.5866 82.2222C58.3617 82.018 59.1368 81.77 59.9396 81.4491C60.258 81.3178 60.6316 81.4929 60.7562 81.8284C60.8808 82.1639 60.7147 82.5577 60.3964 82.6889C59.5383 83.039 58.7215 83.3016 57.8911 83.5204C56.2717 83.9288 54.5693 84.1476 52.8668 84.1476Z" fill="white"/>
<path d="M72.2305 84.1476C70.5696 84.1476 68.9363 83.9434 67.3446 83.535C66.5141 83.3308 65.6698 83.0536 64.8255 82.7327C64.4933 82.6014 64.3272 82.2222 64.4518 81.8721C64.5764 81.5221 64.9362 81.347 65.2684 81.4783C66.0573 81.7846 66.8601 82.0472 67.6353 82.2368C70.1959 82.8931 72.9779 82.9807 75.4278 82.5431C79.068 81.9159 82.4591 80.2239 85.255 77.6567C89.518 73.7039 91.968 68.0007 91.968 62.0204C91.968 60.4597 91.8018 58.8989 91.4696 57.382C91.4696 57.3674 91.4696 57.3674 91.4696 57.3528C91.4558 57.3236 91.4558 57.2799 91.442 57.2507C91.3174 56.9152 91.4834 56.536 91.8018 56.4047C92.134 56.2734 92.4939 56.463 92.6184 56.7985C92.6323 56.8277 92.6599 56.9298 92.6738 57.0028C92.6738 57.0319 92.6876 57.0611 92.6876 57.0903C93.0337 58.6947 93.2136 60.3576 93.2136 62.0204C93.2136 68.38 90.6115 74.4478 86.0716 78.6632C83.0958 81.4054 79.4833 83.1995 75.6216 83.8704C74.5558 84.0454 73.407 84.1476 72.2305 84.1476Z" fill="white"/>
<path d="M66.0851 78.9987C65.919 78.9987 65.739 78.9257 65.6283 78.7799C65.393 78.5173 65.4069 78.0943 65.6698 77.8464C65.739 77.788 65.7943 77.7297 65.8635 77.6713C66.3618 77.2191 66.8047 76.7524 67.2338 76.2711C67.9397 75.4834 68.5764 74.6374 69.1577 73.7476C70.1405 72.2453 70.9156 70.6116 71.4969 68.9051C71.5523 68.7592 71.6492 68.6279 71.7737 68.555L91.7603 56.5798C92.051 56.4047 92.4524 56.5068 92.6185 56.8277C92.7845 57.1486 92.6877 57.557 92.3832 57.7321L72.6042 69.5906C72.009 71.3264 71.1924 72.9746 70.2097 74.5061C69.5868 75.4542 68.9086 76.3586 68.1612 77.19C67.6906 77.7151 67.22 78.1964 66.7217 78.6632L66.528 78.8382C66.3896 78.9403 66.2373 78.9987 66.0851 78.9987Z" fill="white"/>
<path d="M59.0399 79.0716C58.943 79.0716 58.8323 79.0424 58.7354 78.9549C58.7216 78.9403 58.6108 78.8382 58.597 78.8236C58.0157 78.2985 57.4621 77.7442 56.9223 77.1462C56.2302 76.3731 55.5658 75.498 54.943 74.579C53.9326 73.0475 53.1159 71.3701 52.5069 69.6052L32.7003 57.7321C32.3958 57.557 32.2989 57.1486 32.4649 56.8277C32.631 56.5068 33.0186 56.3901 33.3231 56.5797L53.3235 68.5695C53.4619 68.6425 53.5588 68.7737 53.6004 68.9196C54.1817 70.6554 54.9845 72.3036 55.9672 73.806C56.5485 74.6811 57.1713 75.498 57.8219 76.2273C58.334 76.7961 58.8461 77.3212 59.3721 77.788C59.6351 78.0214 59.732 78.4881 59.5244 78.7652C59.3998 78.9695 59.2198 79.0716 59.0399 79.0716Z" fill="white"/>
<path d="M9.46102 111.088C9.36414 111.088 9.2534 111.03 9.19804 110.942C9.10115 110.782 9.14268 110.578 9.29494 110.49L49.5172 82.9515C49.6556 82.8494 49.8632 82.8932 49.9463 83.0536C50.0432 83.2141 50.0016 83.4183 49.8494 83.5058L9.62711 111.044C9.58559 111.074 9.51639 111.088 9.46102 111.088Z" fill="white"/>
<path d="M62.6109 60.6201C62.431 60.6201 62.2926 60.4743 62.2926 60.2847V8.81013C62.2926 8.62051 62.431 8.47463 62.6109 8.47463C62.7909 8.47463 62.9293 8.62051 62.9293 8.81013V60.2847C62.9293 60.4743 62.7909 60.6201 62.6109 60.6201Z" fill="white"/>
<path d="M115.761 111.088C115.705 111.088 115.636 111.074 115.595 111.03L75.3586 83.4766C75.2064 83.3745 75.1649 83.1703 75.2617 83.0245C75.3586 82.864 75.5524 82.8348 75.6908 82.9223L115.927 110.49C116.079 110.592 116.121 110.796 116.024 110.942C115.968 111.044 115.872 111.088 115.761 111.088Z" fill="white"/>
</svg>
