<svg width="130" height="146" viewBox="0 0 130 146" fill="none" xmlns="http://www.w3.org/2000/svg">
<path d="M47.5303 107.154C47.3457 107.154 47.1457 107.073 47.0226 106.926C46.838 106.713 46.7765 106.403 46.8842 106.142L69.1765 48.9588C69.238 48.8118 69.3303 48.6975 69.4534 48.6158L100.1 27.7745C100.315 27.6275 100.592 27.6111 100.823 27.7581C101.053 27.8888 101.192 28.1501 101.176 28.4278L99.8534 88.1425C99.8534 88.4528 99.6534 88.7305 99.3765 88.8285L47.7765 107.138C47.6842 107.154 47.6073 107.154 47.5303 107.154ZM70.3765 49.7265L48.7611 105.194L98.4534 87.5708L99.7304 29.7671L70.3765 49.7265Z" fill="white"/>
<path d="M46.4688 145.521H46.4534C46.0688 145.505 45.7611 145.162 45.7765 144.754L46.8226 106.73L20.2534 79.9105C20.1303 79.7798 20.0534 79.6165 20.038 79.4368L15.3919 23.2501C15.3765 22.9888 15.4842 22.7275 15.6842 22.5805C15.8842 22.4335 16.1457 22.4008 16.3765 22.5151L70.0996 48.5668C70.4534 48.7301 70.6073 49.1875 70.438 49.5468C70.2842 49.9225 69.8534 50.0858 69.515 49.9061L16.8996 24.3771L21.4073 79.0285L48.0073 105.88C48.1457 106.027 48.238 106.223 48.2227 106.436L47.1611 144.786C47.1611 145.195 46.8534 145.521 46.4688 145.521Z" fill="white"/>
<path d="M97.4996 139.037C97.4996 139.037 97.4842 139.037 97.4688 139.037C97.0842 139.021 96.7765 138.678 96.7919 138.269L98.4226 88.0771C98.438 87.7668 98.6226 87.5055 98.8842 87.4075L128.207 76.1865C128.576 76.0395 128.976 76.2518 129.1 76.6274C129.238 77.0194 129.038 77.4441 128.684 77.5748L99.8072 88.6161L98.1919 138.302C98.1919 138.727 97.8842 139.037 97.4996 139.037Z" fill="white"/>
<path d="M108.638 15.0998C108.638 15.0998 108.623 15.0998 108.607 15.0998L66.9919 13.4991C66.915 13.4991 66.8226 13.4828 66.7457 13.4338L41.4073 2.06579C41.0534 1.90245 40.8842 1.47779 41.038 1.08579C41.1919 0.710123 41.6073 0.530454 41.9611 0.693787L67.1765 11.9965L108.653 13.5808C109.038 13.5971 109.346 13.9401 109.33 14.3485C109.33 14.7731 109.023 15.0998 108.638 15.0998Z" fill="white"/>
<path d="M113.684 60.4411C113.423 60.4411 113.161 60.2778 113.053 60.0001L99.9457 28.9505L66.9611 13.5318L16.2227 23.9034C15.8996 23.9524 15.5611 23.7728 15.438 23.4461L11.3303 12.4701C11.1919 12.0944 11.3611 11.6535 11.715 11.5065C12.0688 11.3595 12.4842 11.5391 12.6226 11.9148L16.5303 22.3355L66.8996 12.0291C67.038 11.9965 67.1765 12.0128 67.315 12.0781L100.746 27.7091C100.9 27.7744 101.038 27.9215 101.1 28.0848L114.315 59.3958C114.469 59.7715 114.315 60.2124 113.961 60.3758C113.884 60.4248 113.776 60.4411 113.684 60.4411Z" fill="white"/>
<path d="M46.4688 145.521C46.2534 145.521 46.0534 145.423 45.915 145.227L17.2688 105.717L5.49958 104.623C5.16112 104.59 4.89959 104.312 4.86882 103.969L0.222656 59.5101C0.222656 59.4938 0.222656 59.4775 0.222656 59.4611C0.222656 59.3958 0.222663 59.3305 0.253432 59.2488L11.2996 12.0291C11.3611 11.7841 11.5303 11.5881 11.7457 11.5065L41.4688 0.710127C41.5611 0.677461 41.6534 0.661127 41.7457 0.67746L75.1765 3.11112L108.853 13.6625C109.115 13.7441 109.315 13.9891 109.346 14.2831L114.361 59.3958L128.976 76.3988C129.1 76.5458 129.161 76.7255 129.161 76.9215L128.269 111.189C128.269 111.401 128.177 111.597 128.023 111.728L97.9457 138.857C97.838 138.955 97.715 139.004 97.5765 139.037L46.5457 145.521C46.5303 145.521 46.4996 145.521 46.4688 145.521ZM18.3765 104.802L46.7919 143.986L97.2227 137.583L126.9 110.813L127.761 77.1665L113.176 60.2125C113.084 60.0981 113.023 59.9511 112.992 59.8041L108.007 14.9365L74.9303 4.56479L41.7919 2.14746L12.5611 12.7641L1.69958 59.1835L21.2073 78.8325C21.3765 78.9958 21.4534 79.2245 21.4227 79.4695L18.3765 104.802ZM6.19189 103.202L17.0227 104.214L19.9919 79.6655L1.82266 61.3721L6.19189 103.202Z" fill="white"/>
<path d="M46.9919 126.232C46.8688 126.232 46.7611 126.166 46.6842 126.052L20.4227 79.5675C20.3304 79.4041 20.3765 79.1755 20.5304 79.0611C20.6842 78.9468 20.8842 78.9795 21.0073 79.1428L47.5303 116.334C47.6534 116.497 47.6227 116.726 47.4688 116.856C47.315 116.987 47.0996 116.954 46.9765 116.791L24.3765 85.0881L47.2996 125.66C47.3919 125.84 47.3457 126.068 47.1765 126.166C47.115 126.215 47.0534 126.232 46.9919 126.232Z" fill="white"/>
<path d="M39.4996 135.542C39.3611 135.542 39.2227 135.444 39.1765 135.297L20.4073 79.5021C20.3457 79.3225 20.4227 79.1101 20.5919 79.0285C20.7611 78.9468 20.9611 79.0285 21.038 79.2081L47.0688 134.268C47.1611 134.447 47.0842 134.676 46.915 134.758C46.7457 134.856 46.5304 134.774 46.438 134.594L22.9919 84.9901L39.838 135.052C39.8996 135.248 39.8073 135.46 39.6227 135.525C39.5919 135.542 39.5457 135.542 39.4996 135.542Z" fill="white"/>
<path d="M30.115 122.589C29.9611 122.589 29.8073 122.475 29.7765 122.295L21.2842 83.5201L22.638 111.385C22.6534 111.597 22.4996 111.76 22.2996 111.777C22.0996 111.76 21.9457 111.63 21.9304 111.417L20.3765 79.3715C20.3611 79.1755 20.4996 79.0121 20.6842 78.9795C20.8381 78.9631 21.0381 79.0775 21.0688 79.2571L30.4534 122.099C30.4996 122.295 30.3765 122.508 30.1919 122.54C30.1765 122.589 30.1457 122.589 30.115 122.589Z" fill="white"/>
<path d="M47.5303 106.795C47.4227 106.795 47.3303 106.746 47.2534 106.664C47.1303 106.517 47.1457 106.289 47.2842 106.158L99.5919 56.2925C99.7303 56.1618 99.9611 56.1618 100.084 56.3251C100.207 56.4721 100.207 56.7171 100.053 56.8478L52.6073 102.091L99.3919 66.2885C99.5457 66.1578 99.7611 66.2068 99.8842 66.3701C99.9919 66.5335 99.9611 66.7621 99.8073 66.8928L47.715 106.746C47.6688 106.762 47.6073 106.795 47.5303 106.795Z" fill="white"/>
<path d="M48.3304 106.37C48.2073 106.37 48.0842 106.289 48.0227 106.158C47.9457 105.978 48.0073 105.766 48.1611 105.668L99.2534 75.1085C99.4226 75.0105 99.638 75.0758 99.7304 75.2555C99.8227 75.4351 99.7611 75.6638 99.5919 75.7618L55.4534 102.173L99.1457 81.1518C99.3303 81.0701 99.5304 81.1518 99.6073 81.3315C99.6842 81.5111 99.6073 81.7398 99.438 81.8215L48.4842 106.338C48.4227 106.354 48.3765 106.37 48.3304 106.37Z" fill="white"/>
<path d="M82.7457 73.2301C82.6996 73.2301 82.6534 73.2138 82.6073 73.1974C82.4227 73.1158 82.3457 72.9035 82.4226 72.7075L100.146 28.2481C100.223 28.0685 100.407 27.9868 100.576 28.0358C100.746 28.1011 100.853 28.2971 100.807 28.4768L91.9611 64.4755C91.915 64.6715 91.7303 64.8021 91.5303 64.7368C91.3457 64.6878 91.238 64.4755 91.2842 64.2794L98.9149 33.2298L83.0688 72.9851C83.0073 73.1321 82.8842 73.2301 82.7457 73.2301Z" fill="white"/>
<path d="M59.038 95.8191C58.9765 95.8191 58.8996 95.8028 58.838 95.7538C58.6842 95.6394 58.638 95.4108 58.7303 95.2311L100.146 28.1828C100.253 28.0195 100.453 27.9705 100.623 28.0685C100.792 28.1665 100.838 28.3951 100.746 28.5585L73.4534 82.1481C73.3611 82.3278 73.1457 82.3931 72.9765 82.2951C72.8073 82.1971 72.7457 81.9685 72.838 81.7888L96.2073 35.9085L59.315 95.6394C59.2688 95.7538 59.1611 95.8191 59.038 95.8191Z" fill="white"/>
<path d="M47.5303 106.795C47.4688 106.795 47.4073 106.779 47.3457 106.746C47.1765 106.632 47.1303 106.403 47.238 106.24L84.9611 41.9681L59.8996 75.6801C59.7765 75.8435 59.5611 75.8761 59.4073 75.7455C59.2534 75.6148 59.2227 75.3861 59.3457 75.2228L88.315 36.2678C88.438 36.1045 88.638 36.0881 88.7919 36.1861C88.9457 36.3005 88.9919 36.5128 88.8842 36.6925L47.838 106.632C47.7611 106.73 47.6534 106.795 47.5303 106.795Z" fill="white"/>
<path d="M82.7457 57.4521C82.715 57.4521 82.6842 57.4521 82.638 57.4358C82.4534 57.3705 82.3457 57.1745 82.4073 56.9785L88.238 36.3658C88.2842 36.2025 88.438 36.0718 88.6073 36.1045C88.7765 36.1208 88.8996 36.2678 88.915 36.4475L89.6996 46.3291C89.715 46.5415 89.5765 46.7211 89.3765 46.7375C89.1611 46.7701 89.0073 46.6068 88.9919 46.3945L88.3765 38.4401L83.0688 57.1745C83.038 57.3541 82.8842 57.4521 82.7457 57.4521Z" fill="white"/>
<path d="M93.7457 39.6325C93.6842 39.6325 93.638 39.6161 93.5919 39.5998L88.4227 36.8068C88.2996 36.7415 88.2226 36.5945 88.238 36.4475C88.2534 36.3005 88.3457 36.1698 88.4842 36.1208L97.1457 33.2625C97.3303 33.1971 97.5303 33.3115 97.5765 33.5075C97.638 33.7035 97.5304 33.9158 97.3457 33.9648L89.515 36.5618L93.915 38.9465C94.0842 39.0445 94.1611 39.2568 94.0688 39.4528C93.9919 39.5671 93.8688 39.6325 93.7457 39.6325Z" fill="white"/>
<path d="M65.515 60.6371C65.4227 60.6371 65.3303 60.6045 65.2688 60.5228C65.1303 60.3758 65.1303 60.1471 65.2688 60.0001L88.3304 36.2025C88.4688 36.0555 88.6842 36.0555 88.8227 36.2025C88.9611 36.3495 88.9611 36.5781 88.8227 36.7251L65.7611 60.5228C65.6996 60.6045 65.6073 60.6371 65.515 60.6371Z" fill="white"/>
<path d="M127.577 111.532C127.453 111.532 127.315 111.45 127.269 111.319L113.93 82.4911C113.838 82.3115 113.915 82.0828 114.084 82.0011C114.253 81.9195 114.469 81.9848 114.546 82.1644L126.592 108.183L120.623 79.8288C120.576 79.6328 120.7 79.4368 120.884 79.3878C121.069 79.3388 121.253 79.4695 121.3 79.6655L127.915 111.074C127.961 111.254 127.853 111.45 127.684 111.499C127.653 111.532 127.607 111.532 127.577 111.532Z" fill="white"/>
<path d="M127.577 111.532C127.5 111.532 127.423 111.499 127.361 111.45L100.253 87.8975C100.1 87.7668 100.084 87.5381 100.207 87.3748C100.33 87.2115 100.546 87.1951 100.7 87.3258L125.176 108.608L107.346 85.1045C107.223 84.9411 107.253 84.7125 107.392 84.5818C107.546 84.4511 107.761 84.4838 107.884 84.6308L127.838 110.927C127.946 111.074 127.946 111.287 127.807 111.417C127.746 111.499 127.669 111.532 127.577 111.532Z" fill="white"/>
<path d="M127.577 111.532C127.546 111.532 127.515 111.532 127.484 111.515L98.5611 103.659C98.3765 103.61 98.2534 103.398 98.3149 103.202C98.3611 103.006 98.5457 102.875 98.7457 102.94L124.684 109.98L98.7457 95.7865C98.5765 95.6885 98.4996 95.4761 98.5919 95.2801C98.6842 95.1005 98.8996 95.0188 99.0688 95.1168L127.746 110.813C127.9 110.895 127.976 111.091 127.915 111.27C127.853 111.434 127.715 111.532 127.577 111.532Z" fill="white"/>
<path d="M98.1457 118.947C97.9919 118.947 97.838 118.833 97.8073 118.669C97.7611 118.473 97.8842 118.261 98.0688 118.228L124.838 111.483L98.4073 110.895C98.2073 110.895 98.0534 110.715 98.0688 110.519C98.0688 110.307 98.2688 110.127 98.4226 110.16L127.592 110.813C127.761 110.813 127.915 110.96 127.93 111.14C127.946 111.319 127.838 111.499 127.669 111.548L98.238 118.963C98.1919 118.947 98.1765 118.947 98.1457 118.947Z" fill="white"/>
<path d="M97.8688 127.31C97.7457 127.31 97.6227 127.228 97.5611 127.097C97.4688 126.918 97.5457 126.689 97.715 126.607L127.423 110.829C127.592 110.731 127.807 110.813 127.884 110.993C127.976 111.172 127.9 111.401 127.73 111.483L98.0227 127.261C97.9765 127.293 97.9304 127.31 97.8688 127.31Z" fill="white"/>
<path d="M110.361 28.7055C109.992 28.7055 106.838 27.5621 66.9303 13.1071C66.7611 13.0418 66.6534 12.8458 66.6996 12.6498C66.7457 12.4538 66.915 12.3395 67.0996 12.3885L109.53 21.4045C109.715 21.4371 109.838 21.6331 109.807 21.8455C109.776 22.0415 109.592 22.1885 109.392 22.1395L72.1765 14.2341C83.515 18.3338 110.007 27.9378 110.3 28.0358L110.192 28.3788L110.392 28.6891C110.392 28.7055 110.392 28.7055 110.361 28.7055Z" fill="white"/>
<path d="M111.1 36.8394C111.038 36.8394 110.976 36.8231 110.93 36.7904L101.238 30.9595C101.069 30.8615 101.007 30.6328 101.1 30.4531C101.192 30.2735 101.407 30.2081 101.576 30.3061L111.269 36.1371C111.438 36.2351 111.5 36.4638 111.407 36.6435C111.346 36.7741 111.223 36.8394 111.1 36.8394Z" fill="white"/>
<path d="M112.161 46.3291C112.069 46.3291 111.992 46.2965 111.915 46.2311L104.346 38.4238C104.207 38.2768 104.207 38.0481 104.346 37.9011C104.484 37.7541 104.7 37.7541 104.838 37.9011L112.407 45.7085C112.546 45.8555 112.546 46.0841 112.407 46.2311C112.346 46.2965 112.253 46.3291 112.161 46.3291Z" fill="white"/>
</svg>
